HIERARCHY
ROOT Hips
{
	OFFSET 0.000000 0.000000 0.000000
	CHANNELS 6 Xposition Yposition Zposition Xrotation Yrotation Zrotation
	JOINT LeftUpLeg_virtual
	{
		OFFSET 0.000000 0.000000 0.000000
		CHANNELS 3 Xrotation Yrotation Zrotation
		JOINT LeftUpLeg
		{
			OFFSET 11.394100 -6.187798 -0.413800
			CHANNELS 3 Xrotation Yrotation Zrotation
			JOINT LeftLeg
			{
				OFFSET 0.430247 -32.302673 3.732800
				CHANNELS 3 Xrotation Yrotation Zrotation
				JOINT LeftFoot
				{
					OFFSET -0.430247 -48.264931 -6.423300
					CHANNELS 3 Xrotation Yrotation Zrotation
					JOINT LeftToeBase
					{
						OFFSET 4.230900 -16.068199 23.438400
						CHANNELS 3 Xrotation Yrotation Zrotation
						JOINT LeftToe_End
						{
							OFFSET 4.510700 0.695400 19.974600
							CHANNELS 3 Xrotation Yrotation Zrotation
							End Site
							{
								OFFSET 0 0 0
							}
						}
					}
				}
			}
		}
	}
	JOINT RightUpLeg_virtual
	{
		OFFSET 0.000000 0.000000 0.000000
		CHANNELS 3 Xrotation Yrotation Zrotation
		JOINT RightUpLeg
		{
			OFFSET -11.333700 -6.187798 -0.413800
			CHANNELS 3 Xrotation Yrotation Zrotation
			JOINT RightLeg
			{
				OFFSET -0.430392 -32.302628 3.733000
				CHANNELS 3 Xrotation Yrotation Zrotation
				JOINT RightFoot
				{
					OFFSET 0.430392 -48.264973 -6.423500
					CHANNELS 3 Xrotation Yrotation Zrotation
					JOINT RightToeBase
					{
						OFFSET -4.230900 -16.068199 23.438400
						CHANNELS 3 Xrotation Yrotation Zrotation
						JOINT RightToe_End
						{
							OFFSET -4.510700 0.695400 19.974600
							CHANNELS 3 Xrotation Yrotation Zrotation
							End Site
							{
								OFFSET 0 0 0
							}
						}
					}
				}
			}
		}
	}
	JOINT Spine_virtual
	{
		OFFSET 0.000000 0.000000 0.000000
		CHANNELS 3 Xrotation Yrotation Zrotation
		JOINT Spine
		{
			OFFSET -0.002400 12.777504 0.315300
			CHANNELS 3 Xrotation Yrotation Zrotation
			JOINT Spine1
			{
				OFFSET -0.002067 5.816869 0.032633
				CHANNELS 3 Xrotation Yrotation Zrotation
				JOINT Spine1_split
				{
					OFFSET -0.002067 5.816869 0.032633
					CHANNELS 3 Xrotation Yrotation Zrotation
					JOINT Spine2
					{
						OFFSET -0.002067 5.816869 0.032633
						CHANNELS 3 Xrotation Yrotation Zrotation
						JOINT Neck_virtual
						{
							OFFSET 0.000000 0.000000 0.000000
							CHANNELS 3 Xrotation Yrotation Zrotation
							JOINT Neck
							{
								OFFSET -0.003700 21.199493 -0.826900
								CHANNELS 3 Xrotation Yrotation Zrotation
								JOINT Head
								{
									OFFSET 0.000000 20.442200 4.834800
									CHANNELS 3 Xrotation Yrotation Zrotation
									JOINT HeadTop_End
									{
										OFFSET 0.000000 34.668396 4.968400
										CHANNELS 3 Xrotation Yrotation Zrotation
										End Site
										{
											OFFSET 0 0 0
										}
									}
								}
							}
						}
						JOINT LeftShoulder_virtual
						{
							OFFSET 0.000000 0.000000 0.000000
							CHANNELS 3 Xrotation Yrotation Zrotation
							JOINT LeftShoulder
							{
								OFFSET 3.288150 8.794197 -1.372250
								CHANNELS 3 Xrotation Yrotation Zrotation
								JOINT LeftShoulder_split
								{
									OFFSET 3.288150 8.794197 -1.372250
									CHANNELS 3 Xrotation Yrotation Zrotation
									JOINT LeftArm
									{
										OFFSET 11.953299 -2.279007 -0.146200
										CHANNELS 3 Xrotation Yrotation Zrotation
										JOINT LeftForeArm
										{
											OFFSET 18.448900 0.000000 0.000000
											CHANNELS 3 Xrotation Yrotation Zrotation
											JOINT LeftHand
											{
												OFFSET 29.527798 0.000000 0.000000
												CHANNELS 3 Xrotation Yrotation Zrotation
												End Site
												{
													OFFSET 0 0 0
												}
											}
										}
									}
								}
							}
						}
						JOINT RightShoulder_virtual
						{
							OFFSET 0.000000 0.000000 0.000000
							CHANNELS 3 Xrotation Yrotation Zrotation
							JOINT RightShoulder
							{
								OFFSET -3.249400 8.794197 -1.372250
								CHANNELS 3 Xrotation Yrotation Zrotation
								JOINT RightShoulder_split
								{
									OFFSET -3.249400 8.794197 -1.372250
									CHANNELS 3 Xrotation Yrotation Zrotation
									JOINT RightArm
									{
										OFFSET -11.953299 -2.279007 -0.146200
										CHANNELS 3 Xrotation Yrotation Zrotation
										JOINT RightForeArm
										{
											OFFSET -18.448900 0.000000 0.000000
											CHANNELS 3 Xrotation Yrotation Zrotation
											JOINT RightHand
											{
												OFFSET -29.527802 0.000000 0.000000
												CHANNELS 3 Xrotation Yrotation Zrotation
												End Site
												{
													OFFSET 0 0 0
												}
											}
										}
									}
								}
							}
						}
					}
				}
			}
		}
	}
}
MOTION
Frames: 11
Frame Time: 0.03333333
-19.371332 83.975220 -18.889669 0.000000 0.000000 0.000000 34.980848 4.334181 -0.813812 -71.141468 -14.637714 19.894825 34.228790 -10.595347 3.722936 7.341446 18.216246 -35.435233 3.053136 -7.748389 1.153736 0.000000 0.000000 0.000000 35.993751 2.047034 -0.619706 -65.326518 -5.938023 -17.367318 45.537503 6.301369 -7.341089 -13.866069 -17.645411 24.217607 1.665620 10.909028 -3.580530 0.000000 0.000000 0.000000 38.055803 5.528861 -3.650761 14.992851 3.120793 2.261141 4.758481 1.638899 1.943610 0.079560 -0.261775 0.119233 0.000000 0.000000 0.000000 6.119113 3.447522 2.073372 -1.749636 -1.723188 -0.557947 -3.064242 -29.999369 -8.436686 0.000000 0.000000 0.000000 4.368070 2.371647 0.682643 -0.610424 -21.606436 -3.274604 3.749983 3.147685 -5.949524 19.771953 -20.794012 -49.777872 -7.758577 -67.342844 -4.193307 0.000000 0.000000 0.000000 6.721192 2.938808 2.211987 1.547748 22.251605 5.986806 -3.890378 -0.705034 4.790226 12.030239 46.336847 13.066085 -23.046855 23.624248 11.721885 0.000000 0.000000 0.000000 
-18.542171 82.677834 -19.112856 0.000000 0.000000 0.000000 37.469414 5.579205 -0.511156 -75.311005 -14.734996 18.464802 36.663779 -10.887496 3.740083 6.833127 17.383742 -35.278979 1.834476 -7.820403 1.102989 0.000000 0.000000 0.000000 38.605103 2.672671 -0.057273 -69.105422 -5.519299 -18.676908 47.581133 7.044129 -7.898946 -14.261170 -17.664992 25.520853 0.663092 11.292839 -4.160651 0.000000 0.000000 0.000000 40.779043 6.319041 -3.139083 15.656682 3.692197 2.471158 4.907360 1.782153 2.027425 0.045059 -0.227280 0.111333 0.000000 0.000000 0.000000 6.286190 3.545013 2.120560 -2.365965 -1.657394 -0.588519 -4.564920 -29.608348 -9.886175 0.000000 0.000000 0.000000 4.524004 2.492681 0.799930 -0.587489 -22.616104 -2.847510 3.862868 3.127813 -5.982430 19.885578 -21.232420 -49.310356 -10.637210 -68.494653 -7.056158 0.000000 0.000000 0.000000 6.795154 3.037422 2.303658 2.362374 22.845262 4.812965 -4.035356 -0.566310 4.661354 8.950562 46.509593 11.238620 -24.052298 24.132093 11.888447 0.000000 0.000000 0.000000 
-17.628532 81.373451 -19.177145 0.000000 0.000000 0.000000 39.965687 7.111931 -0.039259 -79.256941 -14.648790 16.870897 38.717607 -11.084078 3.621823 6.026127 16.670513 -34.814601 0.624174 -7.859411 0.945205 0.000000 0.000000 0.000000 41.012533 3.586676 0.682304 -72.754492 -5.126879 -20.387879 49.983072 7.857872 -8.514179 -15.016176 -17.817728 26.933985 -0.007851 11.769061 -4.824674 0.000000 0.000000 0.000000 43.435270 7.471544 -2.503380 16.208123 4.168838 2.648459 5.089366 1.964381 2.044584 0.040969 -0.211831 0.105342 0.000000 0.000000 0.000000 6.462421 3.690467 2.123874 -2.713005 -1.600992 -0.347997 -6.362531 -29.454812 -11.327468 0.000000 0.000000 0.000000 4.687403 2.649921 0.882201 -0.580683 -23.565452 -2.389334 4.194211 2.737376 -5.919603 20.795230 -22.663497 -49.046397 -13.446601 -69.354854 -9.907940 0.000000 0.000000 0.000000 6.878467 3.177840 2.347012 3.145776 23.292292 3.826817 -4.297799 -0.466257 4.657149 4.779034 46.468185 10.239159 -24.864730 24.612505 11.832557 0.000000 0.000000 0.000000 
-16.683147 79.928368 -19.095671 0.000000 0.000000 0.000000 42.290810 8.859254 0.544776 -83.033373 -14.488942 15.269086 40.722168 -11.296651 3.384090 5.034596 16.106833 -34.201482 -0.622643 -7.852230 0.689879 0.000000 0.000000 0.000000 43.164504 4.838150 1.475930 -76.138878 -4.605649 -22.381490 52.756060 8.640397 -9.177865 -16.302588 -18.310812 28.161719 0.031389 12.246592 -5.359803 0.000000 0.000000 0.000000 45.877291 8.911379 -1.812970 16.691186 4.535000 2.803830 5.347035 2.185102 1.996990 0.044435 -0.197114 0.098485 0.000000 0.000000 0.000000 6.685078 3.878636 2.079189 -2.843291 -1.558527 0.158445 -8.422825 -29.587013 -12.701435 0.000000 0.000000 0.000000 4.892056 2.839708 0.915581 -0.583918 -24.319063 -1.844157 4.605253 2.293011 -5.741934 22.137516 -24.655542 -48.900090 -15.754287 -69.861360 -12.263574 0.000000 0.000000 0.000000 7.013566 3.349352 2.329601 3.862514 23.654038 3.083489 -4.572486 -0.507225 4.814312 0.380841 46.132402 9.331205 -25.638672 25.493092 11.854213 0.000000 0.000000 0.000000 
-15.764025 78.247131 -18.878958 0.000000 0.000000 0.000000 44.285956 10.733211 1.172969 -86.841388 -14.388186 13.763906 43.188253 -11.567701 3.082657 3.826127 15.711127 -33.463132 -1.704947 -7.808574 0.349671 0.000000 0.000000 0.000000 45.025628 6.445048 2.182118 -79.067083 -3.813874 -24.447561 55.956516 9.314631 -9.886405 -18.009243 -19.232916 29.123387 0.172799 12.689335 -5.527522 0.000000 0.000000 0.000000 48.019918 10.519073 -1.160906 17.168090 4.786553 2.962679 5.732480 2.434073 1.906633 0.044410 -0.192905 0.100059 0.000000 0.000000 0.000000 6.979857 4.090952 1.985549 -2.864688 -1.531616 0.861694 -10.688868 -29.949389 -13.937810 0.000000 0.000000 0.000000 5.176484 3.042186 0.906944 -0.566481 -24.755887 -1.101940 4.937086 1.961955 -5.479661 23.449006 -26.674711 -48.773906 -17.392628 -70.028434 -13.884779 0.000000 0.000000 0.000000 7.251127 3.534211 2.261657 4.497731 24.030552 2.567511 -4.839402 -0.685710 5.148198 -3.325924 45.571753 7.683170 -26.506217 26.930319 12.273148 0.000000 0.000000 0.000000 
-14.900761 76.303757 -18.565374 0.000000 0.000000 0.000000 45.881977 12.589849 1.738880 -90.674579 -14.485074 12.449541 46.321284 -12.026326 2.800024 2.506625 15.411063 -32.752294 -2.627977 -7.740578 0.042990 0.000000 0.000000 0.000000 46.591237 8.312473 2.683083 -81.450402 -2.768151 -26.435446 59.653493 9.853931 -10.645795 -19.848644 -20.598788 29.910624 -0.315228 13.105806 -5.152518 0.000000 0.000000 0.000000 49.816569 12.142791 -0.639145 17.705085 4.929424 3.152441 6.275101 2.699940 1.797147 0.062374 -0.208061 0.110080 0.000000 0.000000 0.000000 7.383564 4.308911 1.870319 -2.912580 -1.516396 1.685448 -13.141498 -30.489900 -15.048466 0.000000 0.000000 0.000000 5.586331 3.242196 0.875810 -0.525842 -24.768446 -0.158553 5.105289 1.881134 -5.220280 24.276758 -28.404305 -48.690086 -18.306917 -69.992480 -14.676603 0.000000 0.000000 0.000000 7.636695 3.719118 2.160801 5.060282 24.552177 2.242246 -5.142857 -1.051480 5.666876 -5.909072 44.844184 4.884246 -27.470732 28.513012 13.141200 0.000000 0.000000 0.000000 
-14.121529 74.109398 -18.184088 0.000000 0.000000 0.000000 47.101401 14.353810 2.148404 -94.485483 -14.807696 11.384638 49.931237 -12.631456 2.558190 1.095937 15.187091 -32.212613 -3.437308 -7.641140 -0.231733 0.000000 0.000000 0.000000 47.849590 10.194152 2.976611 -83.255225 -1.579583 -28.213652 63.608042 10.235429 -11.437102 -21.825458 -22.389934 30.482793 -1.363601 13.469721 -4.256999 0.000000 0.000000 0.000000 51.231391 13.686854 -0.259020 18.334509 4.971379 3.406344 6.964514 2.958969 1.694666 0.054354 -0.210165 0.126361 0.000000 0.000000 0.000000 7.903617 4.512919 1.769788 -3.084062 -1.524825 2.551803 -15.754958 -31.143812 -16.042299 0.000000 0.000000 0.000000 6.139615 3.433052 0.842604 -0.486069 -24.308186 0.873067 5.172684 1.870075 -4.931289 24.497665 -29.856987 -48.641889 -18.541841 -69.967126 -14.761299 0.000000 0.000000 0.000000 8.176016 3.897598 2.055928 5.576205 25.288601 1.995035 -5.421083 -1.402058 6.065675 -7.716094 44.045728 1.185325 -28.529560 29.624655 14.339186 0.000000 0.000000 0.000000 
-13.404572 71.806831 -17.741892 0.000000 0.000000 0.000000 48.050097 15.983524 2.371036 -98.146615 -15.282480 10.561730 53.728150 -13.342425 2.420947 -0.269068 15.018386 -31.973700 -4.333033 -7.516172 -0.413777 0.000000 0.000000 0.000000 48.809898 11.884002 3.100079 -84.497698 -0.423562 -29.794337 67.645702 10.455659 -12.201711 -24.130855 -24.487743 30.657769 -2.540523 13.765671 -2.957806 0.000000 0.000000 0.000000 52.383115 15.134581 -0.033167 19.037511 4.932679 3.725947 7.778820 3.200387 1.614323 0.031397 -0.209773 0.132696 0.000000 0.000000 0.000000 8.512594 4.697226 1.712665 -3.433942 -1.578006 3.371944 -18.432090 -31.855118 -16.933181 0.000000 0.000000 0.000000 6.835418 3.606480 0.820574 -0.454408 -23.491934 1.927060 5.192686 1.766601 -4.684817 24.188546 -31.216464 -48.716307 -18.452265 -70.161001 -14.559889 0.000000 0.000000 0.000000 8.857477 4.074882 1.979080 6.080094 26.243192 1.766701 -5.836598 -1.672020 6.338132 -9.466837 43.246914 -2.753219 -29.569883 29.821822 15.628683 0.000000 0.000000 0.000000 
-12.734701 69.562881 -17.223783 0.000000 0.000000 0.000000 48.873036 17.435607 2.368439 -101.431335 -15.795560 9.961549 57.328728 -14.121277 2.430030 -1.429779 14.926629 -32.116451 -5.330906 -7.382667 -0.423212 0.000000 0.000000 0.000000 49.565006 13.217347 3.134947 -85.281674 0.577610 -31.216765 71.593237 10.544864 -12.872183 -26.646842 -26.681681 30.506172 -3.624694 14.032389 -1.524413 0.000000 0.000000 0.000000 53.356809 16.451793 0.060490 19.748737 4.825633 4.088239 8.661524 3.411771 1.564200 0.018602 -0.215010 0.109286 0.000000 0.000000 0.000000 9.171742 4.855294 1.715169 -3.930148 -1.683775 4.096020 -21.003897 -32.702748 -17.723627 0.000000 0.000000 0.000000 7.626807 3.759575 0.813130 -0.439612 -22.472070 2.889517 5.367476 1.384161 -4.452804 23.362174 -32.655442 -49.029970 -18.133614 -70.566475 -14.285409 0.000000 0.000000 0.000000 9.636535 4.245002 1.939141 6.588260 27.268398 1.465793 -6.327890 -1.706311 6.386595 -11.925111 42.498605 -6.036803 -30.630106 29.256846 16.843660 0.000000 0.000000 0.000000 
-12.172472 67.538727 -16.645170 0.000000 0.000000 0.000000 49.627615 18.623764 2.213302 -104.207076 -16.250685 9.568490 60.436341 -14.815362 2.526251 -2.415310 15.013174 -32.449150 -6.042844 -7.238010 -0.348319 0.000000 0.000000 0.000000 50.185238 14.156002 3.133645 -85.685283 1.406863 -32.446247 75.242102 10.596492 -13.419846 -29.058835 -28.743840 30.311256 -4.538896 14.334679 -0.240013 0.000000 0.000000 0.000000 54.289369 17.655127 -0.001217 20.381865 4.669394 4.457168 9.553133 3.582328 1.537109 0.002430 -0.223258 0.088254 0.000000 0.000000 0.000000 9.833978 4.982547 1.764910 -4.474274 -1.842387 4.710581 -23.245673 -33.706068 -18.373284 0.000000 0.000000 0.000000 8.450835 3.886469 0.813704 -0.427932 -21.463630 3.721394 5.481383 0.723112 -4.261007 22.235746 -34.085198 -49.631863 -17.994822 -71.092420 -14.390136 0.000000 0.000000 0.000000 10.441564 4.400721 1.938539 7.087179 28.181441 1.045228 -6.802122 -1.516663 6.256522 -15.424676 41.951080 -7.969537 -31.930281 28.689031 18.113390 0.000000 0.000000 0.000000 
-11.777823 65.853569 -16.054224 0.000000 0.000000 0.000000 50.364333 19.445251 2.021330 -106.396199 -16.626598 9.298968 62.954052 -15.319616 2.705200 -3.307208 15.397758 -32.693660 -6.183513 -7.106163 -0.208958 0.000000 0.000000 0.000000 50.811690 14.799719 3.078311 -85.772013 2.088566 -33.436839 78.340767 10.736518 -13.859079 -31.107892 -30.498065 30.393539 -5.413825 14.726591 0.720611 0.000000 0.000000 0.000000 55.269297 18.689363 -0.220260 20.841957 4.486301 4.789434 10.395974 3.706572 1.513673 0.005048 -0.249114 0.076312 0.000000 0.000000 0.000000 10.460843 5.079240 1.827556 -4.952481 -2.028044 5.212121 -24.971354 -34.919858 -18.857700 0.000000 0.000000 0.000000 9.236771 3.982235 0.806155 -0.375324 -20.663201 4.444421 5.602756 0.006897 -4.117966 20.883978 -35.208888 -50.566131 -18.515912 -71.609882 -15.333662 0.000000 0.000000 0.000000 11.217691 4.525277 1.953197 7.532721 28.786327 0.521134 -7.359657 -1.400024 6.221431 -19.569376 41.602214 -8.286178 -33.669438 29.019807 19.674657 0.000000 0.000000 0.000000 
